<?xml version="1.0" standalone="no"?>
<!DOCTYPE svg PUBLIC "-//W3C//DTD SVG 20010904//EN"
 "http://www.w3.org/TR/2001/REC-SVG-20010904/DTD/svg10.dtd">
<svg version="1.0" xmlns="http://www.w3.org/2000/svg"
 width="980.000000pt" height="980.000000pt" viewBox="0 0 980.000000 980.000000"
 preserveAspectRatio="xMidYMid meet">

<g transform="translate(0.000000,980.000000) scale(0.100000,-0.100000)"
fill="#000000" stroke="none">
<path d="M4920 8553 c-87 -6 -244 -35 -346 -64 -403 -113 -787 -413 -986 -770
l-43 -77 -200 -66 c-314 -104 -635 -240 -903 -382 l-122 -65 0 -758 0 -758
-113 -5 c-98 -4 -122 -8 -169 -31 -93 -45 -158 -129 -192 -248 -14 -49 -16
-173 -14 -1173 l3 -1118 179 -84 180 -84 170 55 c94 30 176 55 182 55 7 0 35
-42 64 -92 113 -198 225 -351 391 -531 432 -466 1145 -881 1759 -1023 133 -30
195 -30 335 1 232 52 458 137 730 275 633 320 1128 764 1407 1262 33 59 64
108 69 108 4 0 87 -25 183 -55 l174 -55 179 84 178 83 0 1144 0 1144 -32 67
c-40 85 -100 150 -172 185 -49 24 -70 28 -168 32 l-113 3 0 759 0 759 -171 85
c-187 94 -444 206 -640 279 l-125 47 -38 77 c-117 239 -352 507 -570 650 -324
213 -693 312 -1066 285z m-20 -378 l0 -105 -48 0 c-46 0 -50 2 -85 49 -20 26
-55 61 -78 76 -49 35 -46 37 82 64 142 30 129 38 129 -84z m386 90 c49 -9 104
-20 121 -26 l33 -11 -51 -39 c-27 -22 -62 -58 -77 -80 -26 -37 -29 -39 -77
-36 l-50 2 -3 89 c-3 82 1 116 11 116 3 0 44 -7 93 -15z m-941 -216 c57 -14
145 -50 145 -58 0 -4 -41 -24 -91 -45 -183 -78 -377 -210 -531 -363 -49 -48
-88 -82 -88 -77 0 15 63 117 127 206 68 94 193 220 292 293 79 59 85 60 146
44z m1555 -53 c151 -113 290 -272 376 -431 l38 -70 -105 100 c-161 153 -360
286 -531 356 -43 17 -78 35 -78 39 0 15 142 67 190 69 16 1 55 -22 110 -63z
m-2509 -793 c-6 -26 -13 -70 -16 -98 -13 -108 -6 -100 -118 -143 -56 -22 -166
-68 -244 -103 l-143 -63 0 -593 0 -593 -115 0 -115 0 0 664 0 663 98 48 c211
103 649 282 661 270 2 -2 -2 -26 -8 -52z m1040 -23 c121 -25 189 -51 222 -84
l26 -26 -22 -4 c-12 -3 -71 -8 -132 -11 -196 -11 -385 -57 -569 -136 -49 -21
-91 -39 -93 -39 -2 0 -12 15 -23 33 -56 91 9 238 118 266 64 17 83 18 230 20
109 1 168 -4 243 -19z m-583 -36 c-16 -8 -28 -19 -28 -25 0 -6 -7 -8 -16 -5
-8 3 -13 2 -10 -3 3 -5 -3 -29 -14 -52 -27 -60 -25 -116 4 -171 l24 -45 -61
-44 c-34 -24 -81 -61 -105 -83 l-43 -40 -96 97 c-88 87 -95 97 -82 114 13 16
13 17 -4 4 -35 -28 -28 -1 8 31 74 65 128 98 149 92 15 -4 17 -3 8 4 -10 7 0
17 40 38 74 41 94 50 168 78 73 28 98 32 58 10z m3230 -146 l132 -61 0 -664 0
-663 -115 0 -115 0 -2 592 -3 592 -120 52 -120 53 -12 113 c-6 62 -12 120 -12
130 -1 18 107 -24 367 -144z m-2325 -20 c57 -76 149 -258 176 -348 11 -36 25
-95 32 -132 9 -51 17 -69 31 -74 11 -3 18 -8 15 -10 -2 -2 -43 14 -90 36 -48
22 -189 72 -314 111 -328 103 -579 200 -654 252 -21 15 -20 16 32 42 141 72
373 142 562 169 162 24 157 25 210 -46z m-1259 -301 c14 -18 23 -37 18 -42 -4
-5 -2 -5 5 -1 6 3 14 2 18 -4 3 -6 -20 -43 -53 -83 -32 -39 -69 -86 -81 -104
l-22 -32 -42 19 c-52 24 -127 25 -170 4 -18 -9 -51 -35 -74 -57 -43 -41 -43
-41 -34 -11 38 129 112 270 197 378 36 45 48 55 56 45 7 -11 8 -9 4 5 -5 13 2
28 21 48 l27 28 52 -79 c28 -44 64 -95 78 -114z m469 53 c26 -15 44 -30 40
-34 -4 -4 0 -4 9 -1 9 4 30 -1 47 -10 65 -33 306 -116 483 -165 101 -28 217
-62 258 -77 105 -35 262 -112 255 -123 -3 -5 0 -7 8 -4 8 3 18 1 22 -5 9 -16
-21 -13 -56 4 -16 9 -34 13 -39 10 -5 -3 -8 -31 -6 -63 2 -64 -2 -76 -50 -139
-19 -25 -53 -77 -75 -116 -23 -40 -48 -82 -55 -94 -8 -13 -14 -25 -14 -28 0
-3 -13 -31 -29 -63 -15 -31 -41 -92 -57 -134 l-29 -78 -40 0 c-37 0 -46 6
-104 68 -35 37 -86 90 -113 118 -27 29 -47 58 -46 65 2 8 -3 13 -9 12 -7 -2
-32 18 -55 44 -24 25 -50 53 -59 62 -19 20 -286 306 -321 345 -15 16 -24 34
-21 39 3 6 2 7 -4 4 -6 -4 -30 15 -53 41 -24 26 -70 75 -103 109 -35 38 -55
67 -51 74 4 7 3 9 -3 6 -6 -4 -16 0 -23 9 -11 12 -8 21 21 50 19 20 65 58 103
85 69 48 70 49 95 32 14 -9 47 -29 74 -43z m2710 20 c99 -16 111 -20 99 -32
-7 -7 -35 -7 -89 1 -118 16 -293 25 -293 15 0 -5 29 -39 65 -74 36 -35 65 -68
65 -72 0 -10 -167 -108 -184 -108 -8 0 -28 18 -46 39 -17 22 -69 74 -115 116
l-84 77 -91 -21 c-311 -73 -584 -226 -802 -447 -98 -100 -129 -138 -199 -241
-87 -128 -198 -360 -184 -383 4 -6 -7 -10 -24 -10 -17 0 -31 2 -31 5 0 11 75
186 110 255 122 243 332 476 565 628 221 144 544 253 800 270 115 8 333 -1
438 -18z m-2990 -291 c4 -3 7 -12 5 -20 -2 -8 2 -13 8 -12 17 3 137 -125 129
-137 -4 -6 -1 -9 7 -8 7 2 12 -3 10 -10 -1 -8 1 -11 6 -8 13 8 254 -253 246
-266 -4 -7 -3 -8 4 -4 6 4 25 -8 42 -26 17 -18 101 -103 186 -189 85 -86 154
-160 154 -163 0 -3 -185 -5 -412 -4 -402 3 -411 3 -414 23 -26 167 -48 295
-64 361 -26 109 -85 258 -125 315 l-33 46 26 34 c14 19 50 64 79 101 l53 67
43 -47 c23 -26 46 -50 50 -53z m2955 -5 c40 -49 94 -118 119 -153 l46 -64 -18
-76 c-15 -65 -29 -115 -51 -180 -3 -9 -16 3 -37 35 -56 84 -171 236 -252 332
-42 51 -75 96 -72 99 17 16 173 103 182 100 5 -2 43 -44 83 -93z m-3333 -68
c19 -8 35 -16 35 -18 0 -2 -27 -58 -60 -123 -89 -177 -154 -391 -176 -577 -3
-32 -10 -58 -14 -58 -12 0 -38 72 -56 155 -21 95 -29 321 -15 415 12 75 34
125 51 115 5 -3 12 0 16 6 5 8 2 10 -7 5 -8 -4 5 11 29 34 27 26 49 40 58 36
8 -3 12 -2 9 3 -13 22 82 27 130 7z m138 -153 c37 -72 76 -185 101 -294 16
-69 56 -298 56 -318 0 -8 -65 -11 -230 -11 -126 0 -230 3 -230 6 0 21 64 254
90 329 33 93 159 355 171 355 3 0 22 -30 42 -67z m2472 12 c21 -29 24 -39 15
-50 -19 -23 -36 -18 -65 16 -24 30 -25 33 -9 50 23 26 27 24 59 -16z m-82 -71
c28 -34 28 -36 10 -49 -25 -20 -28 -19 -57 16 -31 36 -32 45 -8 58 24 15 24
15 55 -25z m173 -39 c26 -35 26 -36 8 -50 -27 -20 -28 -19 -59 21 -27 35 -27
37 -10 50 27 20 31 18 61 -21z m-257 -26 c22 -29 22 -31 5 -50 -17 -19 -18
-19 -46 8 -31 29 -34 43 -16 61 19 19 32 14 57 -19z m181 -93 l-21 -21 -34 40
-34 40 22 18 c21 17 23 16 55 -20 l33 -37 -21 -20z m-265 24 c23 -24 26 -32
15 -45 -17 -20 -29 -19 -57 7 -26 24 -29 38 -11 56 17 17 21 16 53 -18z m174
-37 c32 -38 32 -47 1 -63 -15 -8 -24 -3 -50 31 -31 38 -32 41 -14 54 27 20 29
19 63 -22z m-250 -34 c22 -29 22 -31 4 -44 -24 -19 -25 -19 -57 14 -25 26 -26
30 -11 45 24 23 38 20 64 -15z m167 -35 l27 -35 -20 -20 -20 -21 -33 41 c-26
34 -30 44 -20 56 19 23 37 18 66 -21z m-246 -78 l-20 -21 -32 32 c-31 32 -32
33 -13 53 l19 20 33 -32 33 -32 -20 -20z m160 14 c31 -39 32 -42 15 -60 -20
-23 -32 -17 -67 32 -19 28 -19 30 -3 49 10 10 19 19 21 19 1 0 17 -18 34 -40z
m-242 -41 l24 -29 -23 -19 c-22 -18 -23 -17 -52 16 -28 32 -29 34 -12 53 20
22 32 18 63 -21z m189 -73 c-2 -5 -11 -14 -20 -20 -12 -8 -21 -5 -37 9 -38 34
-44 54 -23 77 18 20 18 20 50 -19 18 -21 31 -42 30 -47z m-273 8 c28 -33 28
-35 11 -54 -24 -26 -25 -26 -58 16 -28 34 -28 36 -11 55 22 25 24 24 58 -17z
m196 -74 c0 -3 -9 -11 -21 -18 -18 -11 -24 -11 -41 5 -36 32 -42 53 -21 75 18
20 18 20 50 -19 18 -21 33 -40 33 -43z m-87 -72 c-2 -5 -17 -8 -33 -8 -21 0
-35 8 -46 25 -16 24 -16 27 2 44 19 19 20 18 51 -17 17 -21 29 -40 26 -44z
m-704 -419 c36 -7 58 -19 76 -41 l25 -30 0 -546 c0 -536 0 -546 -21 -590 -26
-53 -94 -105 -164 -126 -48 -14 -337 -33 -435 -28 -61 3 -123 42 -156 98 l-27
46 2 560 c2 381 6 568 13 584 6 14 28 35 47 47 34 21 50 22 286 27 138 3 262
7 277 8 15 1 50 -3 77 -9z m986 -20 c67 -31 72 -47 78 -284 l6 -210 -95 -79
c-101 -84 -104 -93 -31 -95 47 -1 87 -29 108 -74 17 -38 19 -68 19 -291 l0
-248 -34 -34 c-33 -33 -37 -34 -109 -34 -41 0 -89 3 -106 6 l-31 7 0 217 0
217 -102 6 c-157 9 -148 22 -148 -230 l0 -206 -101 6 c-112 7 -138 18 -166 70
-17 29 -18 81 -21 646 -1 338 -1 620 2 627 4 10 78 12 348 7 307 -5 347 -7
383 -24z m-1901 -3 c64 -27 66 -36 66 -279 l0 -218 -265 -262 -265 -262 -1
-203 c0 -153 -4 -205 -14 -215 -21 -21 -180 -43 -211 -29 -58 27 -57 21 -50
772 4 376 9 687 12 689 6 6 301 17 537 19 116 2 167 -2 191 -12z m2869 -3 l47
-6 0 -129 0 -130 -126 8 -126 7 7 -597 8 -596 -21 0 c-49 0 -175 31 -201 49
-59 42 -59 37 -67 624 l-7 537 -66 0 c-77 0 -137 23 -169 65 -18 23 -22 41
-22 108 l0 80 348 -7 c191 -4 368 -9 395 -13z m-3755 -260 c3 -289 16 -258
-114 -268 -56 -5 -89 -3 -104 5 -35 18 -60 86 -60 162 l0 66 -62 -5 c-35 -3
-90 -8 -123 -12 l-60 -6 -3 -172 c-2 -157 -1 -172 15 -177 10 -3 127 -26 261
-52 l242 -47 0 -326 c-1 -445 11 -425 -278 -498 -97 -24 -248 -64 -335 -89
-86 -24 -162 -44 -167 -44 -6 0 -10 102 -10 279 l0 279 43 10 c89 23 142 25
175 8 44 -23 52 -43 52 -136 0 -80 1 -82 23 -77 12 3 66 15 120 27 l97 22 0
158 0 159 -32 6 c-332 55 -464 78 -470 82 -10 5 -10 367 -1 651 l6 210 101 7
c157 10 628 33 656 31 l25 -1 3 -252z m4430 232 c167 -8 307 -17 313 -20 9 -6
14 -547 4 -557 -8 -7 -166 18 -196 32 -45 21 -72 83 -77 176 l-4 82 -97 7
c-53 3 -109 9 -124 12 l-28 5 3 -169 3 -168 35 -17 c19 -10 123 -60 230 -112
107 -52 210 -104 228 -115 l32 -21 0 -365 c0 -398 -3 -418 -55 -431 -36 -9
-60 -4 -387 80 -164 42 -306 76 -317 76 -10 0 -21 6 -24 14 -9 23 -8 494 0
499 16 9 174 -30 200 -49 55 -41 68 -69 72 -160 1 -46 5 -84 8 -84 2 0 54 -11
115 -25 61 -14 112 -25 115 -25 2 0 2 73 1 163 l-3 162 -255 127 -255 126 -6
164 c-8 217 -10 603 -3 610 3 3 42 4 87 1 45 -2 218 -10 385 -18z m-4219
-2101 c227 -358 639 -707 1120 -948 203 -102 405 -179 577 -221 70 -17 73 -17
160 5 308 77 771 305 1056 521 273 206 490 434 641 671 21 33 42 56 49 53 7
-2 54 -14 103 -25 50 -12 94 -25 98 -30 17 -16 -90 -186 -215 -341 -384 -480
-1047 -905 -1668 -1071 -149 -39 -245 -28 -488 56 -678 235 -1286 685 -1624
1200 -72 110 -95 153 -86 160 4 4 200 54 213 55 6 0 34 -38 64 -85z m2041 -94
c142 -12 270 -31 270 -40 0 -10 -210 -145 -285 -183 -98 -50 -171 -77 -204
-77 -63 0 -220 75 -383 183 -96 63 -124 87 -101 87 4 0 61 7 128 15 211 26
392 31 575 15z"/>
<path d="M4388 7063 c6 -2 18 -2 25 0 6 3 1 5 -13 5 -14 0 -19 -2 -12 -5z"/>
<path d="M3895 6400 c-3 -5 -1 -10 4 -10 6 0 11 5 11 10 0 6 -2 10 -4 10 -3 0
-8 -4 -11 -10z"/>
<path d="M4415 5660 c10 -11 20 -20 23 -20 3 0 -3 9 -13 20 -10 11 -20 20 -23
20 -3 0 3 -9 13 -20z"/>
<path d="M4448 4962 l-117 -3 -3 -414 -3 -413 -25 -27 -25 -27 165 7 c91 4
167 9 169 11 2 2 -4 13 -15 25 -18 20 -19 45 -24 433 l-5 411 -117 -3z"/>
<path d="M5290 4780 c0 -99 3 -180 6 -180 3 0 57 43 119 96 71 59 115 104 117
117 2 12 1 50 0 85 l-4 62 -119 0 -119 0 0 -180z"/>
<path d="M3487 4933 c-65 -3 -99 -8 -102 -16 -7 -23 -14 -387 -7 -387 4 0 60
53 124 117 l118 118 0 87 c0 78 -2 88 -17 86 -10 -1 -62 -4 -116 -5z"/>
</g>
</svg>
